<?xml version="1.0" encoding="UTF-8" standalone="no"?>
<!-- Generator: Adobe Illustrator 26.3.1, SVG Export Plug-In . SVG Version: 6.00 Build 0)  -->

<svg
   version="1.1"
   id="Raised-Hand"
   x="0px"
   y="0px"
   viewBox="0 0 128 128"
   xml:space="preserve"
   sodipodi:docname="icon.svg"
   width="16"
   height="16"
   inkscape:version="1.3.2 (091e20ef0f, 2023-11-25)"
   xmlns:inkscape="http://www.inkscape.org/namespaces/inkscape"
   xmlns:sodipodi="http://sodipodi.sourceforge.net/DTD/sodipodi-0.dtd"
   xmlns="http://www.w3.org/2000/svg"
   xmlns:svg="http://www.w3.org/2000/svg"><defs
   id="defs5" /><sodipodi:namedview
   id="namedview5"
   pagecolor="#ffffff"
   bordercolor="#000000"
   borderopacity="0.25"
   inkscape:showpageshadow="2"
   inkscape:pageopacity="0.0"
   inkscape:pagecheckerboard="false"
   inkscape:deskcolor="#d1d1d1"
   inkscape:zoom="10.429825"
   inkscape:cx="-37.153068"
   inkscape:cy="16.155592"
   inkscape:window-width="3786"
   inkscape:window-height="662"
   inkscape:window-x="0"
   inkscape:window-y="0"
   inkscape:window-maximized="0"
   inkscape:current-layer="Raised-Hand" />
<g
   id="g2">
	<g
   id="neutral-face_00000080885983375266818540000014933881844342678202_">
		<path
   id="mouth_00000064329789738385436900000009578621846817519233_"
   style="fill:#823e00"
   d="M 79,88 H 49 c -2.21,0 -4,-1.79 -4,-4 0,-2.21 1.79,-4 4,-4 h 30 c 2.21,0 4,1.79 4,4 0,2.21 -1.79,4 -4,4 z" />
	</g>
	<path
   style="fill:#af6300"
   d="m 44.67,45.94 v 0 c -4.19,0 -8,3.54 -8,9.42 0,5.88 3.81,9.42 8,9.42 v 0 c 4.19,0 8,-3.54 8,-9.42 0,-5.88 -3.81,-9.42 -8,-9.42 z"
   id="path1" />
	<path
   style="fill:#af6300"
   d="m 83.02,45.94 v 0 c -4.19,0 -8,3.54 -8,9.42 0,5.88 3.81,9.42 8,9.42 v 0 c 4.19,0 8,-3.54 8,-9.42 0,-5.88 -3.81,-9.42 -8,-9.42 z"
   id="path2" />
</g>
<linearGradient
   id="SVGID_1_"
   gradientUnits="userSpaceOnUse"
   x1="63.723202"
   y1="118.8388"
   x2="63.723202"
   y2="6.9618001">
	<stop
   offset="0.015"
   style="stop-color:#EB8F00"
   id="stop2" />
	<stop
   offset="1"
   style="stop-color:#FFD54F"
   id="stop3" />
</linearGradient>
<path
   style="fill:url(#SVGID_1_)"
   d="M 63.77,118.84 H 63.6 c -3.99,0 -8.01,-0.36 -11.93,-1.07 l 0.54,-2.95 c 3.75,0.68 7.58,1.03 11.4,1.03 h 0.17 v 2.99 z m 11.94,-1.1 -0.55,-2.95 c 3.78,-0.7 7.48,-1.76 10.98,-3.14 l 1.1,2.79 c -3.68,1.45 -7.56,2.56 -11.53,3.3 z m -35.59,-3.2 c -3.81,-1.47 -7.41,-3.29 -10.72,-5.43 l 1.63,-2.52 c 3.13,2.03 6.55,3.76 10.17,5.15 z m 57.79,-5.62 -1.65,-2.51 c 2,-1.32 3.92,-2.77 5.69,-4.33 1.05,-0.93 2.08,-1.92 3.04,-2.94 l 2.18,2.07 c -1.02,1.08 -2.11,2.13 -3.23,3.12 -1.88,1.66 -3.91,3.2 -6.03,4.59 z m -77.82,-7.45 c -2.8,-2.91 -5.24,-6.15 -7.25,-9.63 l 2.6,-1.5 c 1.89,3.27 4.18,6.32 6.81,9.05 z m 94.28,-9.91 -2.6,-1.49 c 1.86,-3.24 3.37,-6.75 4.47,-10.44 l 2.88,0.86 c -1.17,3.9 -2.77,7.63 -4.75,11.07 z M 8.1,80.77 C 6.99,77.05 6.24,73.08 5.88,68.98 l 2.99,-0.26 c 0.35,3.9 1.05,7.67 2.11,11.2 z m 113.24,-12.09 -2.99,-0.26 c 0.16,-1.8 0.24,-3.66 0.24,-5.52 0,-2 -0.09,-3.99 -0.27,-5.92 l 2.99,-0.28 c 0.19,2.02 0.28,4.11 0.28,6.2 -0.01,1.95 -0.09,3.89 -0.25,5.78 z M 8.85,57.27 5.86,57.01 c 0.35,-4.1 1.08,-8.07 2.18,-11.8 l 2.88,0.85 C 9.88,49.6 9.19,53.37 8.85,57.27 Z M 116.13,45.79 c -1.12,-3.68 -2.65,-7.18 -4.53,-10.41 l 2.59,-1.51 c 2,3.43 3.61,7.15 4.8,11.04 z M 15.35,35.62 12.75,34.13 c 1.99,-3.49 4.42,-6.74 7.21,-9.66 l 2.17,2.07 c -2.62,2.75 -4.9,5.81 -6.78,9.08 z m 89.43,-9.3 C 103.89,25.39 102.93,24.47 101.95,23.6 100.1,21.98 98.1,20.47 96,19.11 l 1.63,-2.52 c 2.22,1.44 4.34,3.04 6.3,4.76 1.05,0.93 2.06,1.9 3.01,2.89 z M 30.87,19.31 29.23,16.8 c 3.29,-2.15 6.89,-3.99 10.7,-5.47 l 1.09,2.8 c -3.61,1.4 -7.03,3.14 -10.15,5.18 z M 85.84,13.96 C 82.34,12.62 78.63,11.6 74.83,10.93 l 0.52,-2.96 c 3.99,0.7 7.88,1.78 11.57,3.19 z M 52.02,11.02 51.48,8.07 C 55.4,7.35 59.41,6.97 63.41,6.96 l 0.01,3 c -3.82,0.01 -7.65,0.37 -11.4,1.06 z"
   id="path3" />
<g
   id="g4">
	<g
   id="peepers_00000000943899703814137150000008559515959999254185_">
		<path
   style="opacity:0.4;fill:#ffffff"
   d="m 44.28,49.87 v 0 c -1.03,-0.72 -2.58,-0.49 -3.58,0.95 -1,1.45 -0.67,2.97 0.36,3.69 v 0 c 1.03,0.72 2.58,0.49 3.58,-0.95 1,-1.45 0.67,-2.97 -0.36,-3.69 z"
   id="path4" />
	</g>
</g>
<g
   id="g5">
	<g
   id="peepers_00000032608173352806590750000000877398772088101567_">
		<path
   style="opacity:0.4;fill:#ffffff"
   d="m 82.63,49.87 v 0 c -1.03,-0.72 -2.58,-0.49 -3.58,0.95 -1,1.45 -0.67,2.97 0.36,3.69 v 0 c 1.03,0.72 2.58,0.49 3.58,-0.95 1.01,-1.45 0.68,-2.97 -0.36,-3.69 z"
   id="path5" />
	</g>
</g>
</svg>
